<svg  version="1.1" xmlns="http://www.w3.org/2000/svg" xmlns:xlink="http://www.w3.org/1999/xlink">
  
  <symbol id="print" width="20" height="20" viewBox="0 0 20 20">
    <rect class="printer" y="6" rx="2" ry="2" style="width:20; height:11; fill:#333;"/>
    <rect class="printer-top" y="6" rx="2" ry="2" style="width:20; height:6; fill:#555;"/>
    <rect class="paper" x="4" y="1" width="12" height="6" style="fill:#DDD;"/>
    <rect class="paper" x="4" y="13" style="width:12; height:6; fill:#DDD;"/>
    <line class="lines" x1="6" y1="17" x2="14" y2="17" style="stroke:#555; stroke-width:1;"/>
    <line class="lines" x1="6" y1="15" x2="14" y2="15" style="stroke:#555; stroke-width:1;"/>
    <circle r="0.5" cx="17.5" cy="13.5" fill="#26D"/>
  </symbol>
  
  <symbol id="exit" viewBox="0 0 10 10" style="stroke: #999">
    <path d="M1 1 L9 9 M1 9 L9 1"/>
  </symbol>
  
  <symbol id="menu" preserveAspectRatio="none" viewBox="0 0 1 5">
    <rect width="1" height="1" y="0" fill="#DDD"/>
    <rect width="1" height="1" y="2" fill="#DDD"/>
    <rect width="1" height="1" y="4" fill="#DDD"/>
  </symbol>
  
  <symbol id="page-1" viewBox="0 0 85 110">
    <rect style="width:85; height:110; fill:#DDD;"/>
    <rect x="5" y="5" style="width:75; height:100; fill:none; stroke:#999;"/>
  </symbol>
  
  <symbol id="page-2" viewBox="0 0 85 110">
    <use xlink:href="#page-1"/>
    <path d="M5 55 L80 55" style="stroke:#999"/>
  </symbol>
  
  <symbol id="page-50" viewBox="0 0 85 110">
    <use xlink:href="#page-1"/>
    <path d="M5 15 L80 15 M5 25 L80 25 M5 35 L80 35 M5 45 L80 45 M5 55 L80 55 M5 65 L80 65 M5 75 L80 75 M5 85 L80 85 M5 95 L80 95 M20 5 L20 105 M35 5 L35 105 M50 5 L50 105 M65 5 L65 105" style="stroke:#999; stroke-width:0.5;"/>
  </symbol>
  
</svg>
