<svg  version="1.1" xmlns="http://www.w3.org/2000/svg" xmlns:xlink="http://www.w3.org/1999/xlink">
  
  <symbol id="print" width="20" height="20" viewBox="0 0 20 20">
    <rect class="printer" y="6" rx="2" ry="2" style="width:20; height:11; fill:#333;"/>
    <rect class="printer-top" y="6" rx="2" ry="2" style="width:20; height:6; fill:#555;"/>
    <rect class="paper" x="4" y="1" width="12" height="6" style="fill:#DDD;"/>
    <rect class="paper" x="4" y="13" style="width:12; height:6; fill:#DDD;"/>
    <line class="lines" x1="6" y1="17" x2="14" y2="17" style="stroke:#555; stroke-width:1;"/>
    <line class="lines" x1="6" y1="15" x2="14" y2="15" style="stroke:#555; stroke-width:1;"/>
    <circle r="0.5" cx="17.5" cy="13.5" fill="#26D"/>
  </symbol>
  
  <symbol id="save" viewBox="0 0 22 22">
    
    <mask id="floppy-disk-outline">
      <rect width="22" height="22" fill="black" />
      <path d="M1 2 L2 1 L3.5 1 L4 1.5 L16.5 1.5 L17 1 L18 1 L21 4 L21 20 L 20 21 L2 21 L1 20 L1 2" fill="white"/>
    </mask>
    <mask id="floppy-disk-slide">
      <rect width="22" height="22" fill="black" />
      <rect y="1" width="22" height="21" fill="white"/>
      <rect x="11" y="2.5" width="3" height="5" rx="0.5" fill="black"/>
    </mask>
    <rect width="22" height="22" fill="#444" mask="url(#floppy-disk-outline)"/>
    <rect x="4" width="12.5" height="9.5" rx="1" style="opacity: 0.3" mask="url(#floppy-disk-outline)"/>
    <rect x="4" y="11" width="14" height="9" rx="1" ry="1" fill="#CCC"/>
    <rect x="6" width="10" height="9" rx="0.8" fill="#999" mask="url(#floppy-disk-slide)"/>
  </symbol>
  
  <symbol id="open" viewBox="0 0 22 22">
    <path d="M2 9
             A1 1 0 0 1 3 8
             L10.5 8
             L11.5 9
             L19 9
             A1 1 0 0 1 20 10
             L20 18
             L2 18" 
          fill="#48F"/>
    <path d="M4 1 L14 1 L18 5 L18 13 L4 13"
          fill="#DDD"/>
    <path d="M14 1 L13.5 5.5 L18 5"
          fill="#BBB"/>
    <path d="M14 1 L14.5 4.5 L18 5"
          fill="#EEE"/>
    <path d="M2 21
             L1 14
             A1 1 0 0 1 2 13
             L10 13
             L12 12
             L20 12
             A1 1 0 0 1 21 13
             L20 21" 
          fill="#04B" />
  </symbol>
  
  <symbol id="close" viewBox="0 0 10 10" style="stroke: #999">
    <path d="M1 1 L9 9 M1 9 L9 1"/>
  </symbol>
  
  <symbol id="menu" preserveAspectRatio="none" viewBox="0 0 1 5">
    <rect width="1" height="1" y="0" fill="#DDD"/>
    <rect width="1" height="1" y="2" fill="#DDD"/>
    <rect width="1" height="1" y="4" fill="#DDD"/>
  </symbol>
  
  <symbol id="page-1" viewBox="0 0 85 110">
    <rect style="width:85; height:110; fill:#DDD;"/>
    <rect x="5" y="5" style="width:75; height:100; fill:none; stroke:#999;"/>
  </symbol>
  
  <symbol id="page-2" viewBox="0 0 85 110">
    <use xlink:href="#page-1"/>
    <path d="M5 55 L80 55" style="stroke:#999"/>
  </symbol>
  
  <symbol id="page-50" viewBox="0 0 85 110">
    <use xlink:href="#page-1"/>
    <path d="M5 15 L80 15 M5 25 L80 25 M5 35 L80 35 M5 45 L80 45 M5 55 L80 55 M5 65 L80 65 M5 75 L80 75 M5 85 L80 85 M5 95 L80 95 M20 5 L20 105 M35 5 L35 105 M50 5 L50 105 M65 5 L65 105" style="stroke:#999; stroke-width:0.5;"/>
  </symbol>
</svg>
